<svg height="512" viewBox="0 0 58 58" width="512" xmlns="http://www.w3.org/2000/svg"><g id="Page-1" fill="none" fill-rule="evenodd"><g id="001---Monkey" fill-rule="nonzero" transform="translate(0 -1)"><path id="Shape" d="m23 44v12.5c0 1.3807119-1.1192881 2.5-2.5 2.5s-2.5-1.1192881-2.5-2.5v-12.35z" fill="#805333"/><path id="Shape" d="m40.2 10.66c1.29-4.73 3.47-6.66 5.69-8.13s5.79-2.26 8.71-.69c1.27.68 3.4 2.41 3.4 6.36 0 5-3.59 6.8-6 6.8-1.1045695 0-2-.8954305-2-2s.8954305-2 2-2c.73 0 2-.43 2-2.8 0-2.15-1-2.67-1.29-2.84-1.5228476-.59552941-3.2406676-.40880984-4.6.5-1.56 1-3.52 2.35-4.5 7.77l4.82 22.28c.61.46 1.23.89 1.84 1.3s1.15.79 1.73 1.19c2.6580216 1.9868821 3.7120625 5.473325 2.6 8.6-.82 2.46-2.72 4-4.84 4h-4.91l-.17-4h5.08c.25 0 .76-.46 1-1.31.5247899-1.4878227.0226455-3.1440893-1.24-4.09-.49-.37-1-.72-1.54-1.08-.9847071-.6480589-1.9359278-1.3456208-2.85-2.09z" fill="#805333"/><path id="Shape" d="m7 20.51c-2.94-1.06-7-1.12-7 6.49 0 9 4 10.05 7.3 8.28z" fill="#fb7b76"/><path id="Shape" d="m47 20.51c2.94-1.06 7-1.12 7 6.46 0 9.05-4 10.08-7.3 8.31z" fill="#fb7b76"/><path id="Shape" d="m5.91 30.24c-1.94 0-3.21-.6-3.81-1.8-.15719686-.321539-.13091372-.7025169.06894882-.9994229s.5429406-.464633.9-.44c.3570594.0246331.67385432.2378839.83105118.5594229.15.31.83 1 3.73.53l.3-.05c.27030512-.0191594.53681297.0722009.73851421.2531665s.32132462.4360408.33148579.7068335c.00129033.5260642-.40522456.963177-.93 1h-.12c-.67260553.1336807-1.35473426.2139311-2.04.24z" fill="#ff5364"/><path id="Shape" d="m48.09 30.25c-.40766-.0003533-.8149749-.0237238-1.22-.07-.5522847-.0607513-.9507513-.5577153-.89-1.11s.5577153-.9507513 1.11-.89c1.62.19 2.72-.05 3-.63.2430053-.4970563.8429437-.7030053 1.34-.46s.7030053.8429437.46 1.34c-.42.87-1.43 1.82-3.8 1.82z" fill="#ff5364"/><path id="Shape" d="m45 49c0 4-1.44 4.76-2 5.28-.6295742.5630504-.992632 1.3654083-1 2.21.0018116 1.0125444-.6073144 1.9261924-1.5426836 2.3139215-.9353692.3877292-2.0122454.1729627-2.7273164-.5439215-.3877552-.3799156-.6435926-.8740674-.73-1.41 0-.11 0-.23 0-.35v-1.67h-.16c-.9399921.1535497-1.888373.2503914-2.84.29-.66 0-1.33 0-2 0v1.38c0 1.3807119-1.1192881 2.5-2.5 2.5s-2.5-1.1192881-2.5-2.5v-2c-.6778255-.1566462-1.3456829-.3536641-2-.59-.6938696-.2395903-1.3635191-.5442808-2-.91-3.33-2-4.44-6.22-4.82-8.81.82-.19 22.82-2.19 23.13-2.08 1.86 1.69 3.69 4.17 3.69 6.89z" fill="#a56a43"/><path id="Shape" d="m34 54v1.15c-.66 0-1.33 0-2 0v-1.15c0-.5522847.4477153-1 1-1s1 .4477153 1 1z" fill="#805333"/><path id="Shape" d="m27 53v1.51c-.6778255-.1566462-1.3456829-.3536641-2-.59v-.92c0-.5522847.4477153-1 1-1s1 .4477153 1 1z" fill="#805333"/><path id="Shape" d="m48 28.09c-.0213625 3.3087051-.8194543 6.5661526-2.33 9.51-1.0161346 1.87187-2.523558 3.4311544-4.36 4.51-2.96 1.78-7.41 2.89-14.31 2.89-2.9604478.0446409-5.9172021-.2268977-8.82-.81-5.47-1.19-8.18-3.64-9.85-6.59-1.51054575-2.9438474-2.30863749-6.2012949-2.33-9.51 0-5.07 1.33-11 4.65-14.78 2.6915717-2.8902442 6.3641185-4.67303391 10.3-5 .68-.09 1.35-.15 2-.19-.18-2.34-1.06-3.12-1.95-3.12-1.1045695 0-2-.8954305-2-2s.8954305-2 2-2c2 0 5 0 5 7 0-3 3-4 5-4 1.1045695 0 2 .8954305 2 2 .1022559.81241515-.1872066 1.62513664-.78 2.19.38 0 .77.08 1.16.14l1 .17c1.7724416.32172744 3.4854624.91184287 5.08 1.75.21.11.42.23.62.36l.25.16c.2573363.1539735.5045123.3243245.74.51.8061527.5818852 1.5441451 1.2527873 2.2 2 3.4 3.8 4.73 9.72 4.73 14.81z" fill="#fdd7ad"/><path id="Shape" d="m43.35 13.31c-3.1854091.6377258-6.3127059 1.5374507-9.35 2.69-5 2-5 4-7 4s-2-2-7-4c-3.0372941-1.1525493-6.1645909-2.0522742-9.35-2.69 2.6915717-2.8902442 6.3641185-4.67303391 10.3-5 .68-.09 1.35-.15 2-.19-.18-2.34-1.06-3.12-1.95-3.12-1.1045695 0-2-.8954305-2-2s.8954305-2 2-2c2 0 5 0 5 7 0-3 3-4 5-4 1.1045695 0 2 .8954305 2 2 .1022559.81241515-.1872066 1.62513664-.78 2.19.38 0 .77.08 1.16.14l1 .17c1.7724416.32172744 3.4854624.91184287 5.08 1.75.21.11.42.23.62.36l.25.16c.2573363.1539735.5045123.3243245.74.51.8061527.5818852 1.5441451 1.2527873 2.2 2z" fill="#a56a43"/><path id="Shape" d="m23 9.06c0 .55228475-.4477153 1-1 1s-1-.44771525-1-1c0-.28 0-.54 0-.78.68-.09 1.35-.15 2-.19z" fill="#805333"/><path id="Shape" d="m34.44 8.51c-.67 1.49-2.18 2.21-4.73 2.21-.5522847 0-1-.4477153-1-1 0-.55228475.4477153-1 1-1 .8709582.08029288 1.7458541-.10444609 2.51-.53.78.07 1.47.18 2.22.32z" fill="#805333"/><path id="Shape" d="m31 40h-1c-1.1489086-.0014549-2.2417206-.496863-3-1.36-.7582794.863137-1.8510914 1.3585451-3 1.36h-1c-.5522847 0-1-.4477153-1-1s.4477153-1 1-1h1c1.1045695 0 2-.8954305 2-2v-1c0-.5522847.4477153-1 1-1s1 .4477153 1 1v1c0 1.1045695.8954305 2 2 2h1c.5522847 0 1 .4477153 1 1s-.4477153 1-1 1z" fill="#a56a43"/><circle id="Oval" cx="18" cy="29" fill="#ecf0f1" r="4"/><circle id="Oval" cx="19" cy="29" fill="#35495e" r="2"/><circle id="Oval" cx="36" cy="29" fill="#ecf0f1" r="4"/><path id="Shape" d="m13 25c-.265803.0015368-.5212812-.1028135-.71-.29-.1893127-.1877666-.2957983-.4433625-.2957983-.71s.1064856-.5222334.2957983-.71c1.5677581-1.4223752 3.5938747-2.2349509 5.71-2.29.5522847 0 1 .4477153 1 1s-.4477153 1-1 1c-1.5846547.0570547-3.1006099.6613165-4.29 1.71-.1887188.1871865-.444197.2915368-.71.29z" fill="#cb8252"/><path id="Shape" d="m41 25c-.265803.0015368-.5212812-.1028135-.71-.29-1.1835438-1.0581618-2.7030683-1.6638464-4.29-1.71-.5522847 0-1-.4477153-1-1s.4477153-1 1-1c2.1161253.0550491 4.1422419.8676248 5.71 2.29.1893127.1877666.2957983.4433625.2957983.71s-.1064856.5222334-.2957983.71c-.1887188.1871865-.444197.2915368-.71.29z" fill="#cb8252"/><path id="Shape" d="m30 34c0 1.1-1.34 1-3 1s-3 .1-3-1c.1874269-1.5727003 1.4272997-2.8125731 3-3 1.5727003.1874269 2.8125731 1.4272997 3 3z" fill="#fb7b76"/><path id="Shape" d="m39.4 56.3c-.7004835.2224929-1.4155251.3962413-2.14.52-.0796642.0103659-.1603358.0103659-.24 0 0-.11 0-.23 0-.35v-1.64c.6055722-.1077171 1.2035-.2546938 1.79-.44.253273-.0815936.5286212-.0588801.7651004.0631131.2364791.1219932.4145861.3332051.4948996.5868869.0807982.2559288.0553323.5335937-.0706713.7705557s-.341968.4133302-.5993287.4894443z" fill="#805333"/><circle id="Oval" cx="35" cy="29" fill="#35495e" r="2"/><g fill="#ecf0f1"><circle id="Oval" cx="17.46" cy="27.63" r="1.5"/><circle id="Oval" cx="36.57" cy="27.63" r="1.5"/></g></g></g></svg>