<svg height="512" viewBox="0 0 57 58" width="512" xmlns="http://www.w3.org/2000/svg"><g id="Page-1" fill="none" fill-rule="evenodd"><g id="026---Monkey-Eating-Banana" fill-rule="nonzero"><path id="Shape" d="m48 35c3 0 8 0 8-4s-2-6-5-6c-1.26386.0732617-2.4977487.4141149-3.62 1h-38.77c-1.11876353-.5856634-2.34935018-.9265461-3.61-1-3 0-5 2-5 6s5 4 8 4z" fill="#fb7b76"/><path id="Shape" d="m9.92 31.49c-.10229459.0029216-.20418239-.0140597-.3-.05-1.52322758-.2881804-3.06975818-.435469-4.62-.44-.55228475 0-1-.4477153-1-1s.44771525-1 1-1c1.70868687.0048104 3.41303785.1722319 5.09.5.2107343.0385071.4035328.1436699.55.3.3877236.3900375.3877236 1.0199625 0 1.41-.1928038.1860113-.4521826.2868808-.72.28z" fill="#ff5364"/><path id="Shape" d="m46.08 31.49c-.2574695-.0010253-.5046225-.1013193-.69-.28-.3877236-.3900375-.3877236-1.0199625 0-1.41.1464672-.1563301.3392657-.2614929.55-.3 1.6671225-.3258795 3.3613388-.4932922 5.06-.5.5522847 0 1 .4477153 1 1s-.4477153 1-1 1c-1.5502418.004531-3.0967724.1518196-4.62.44-.0958176.0359403-.1977054.0529216-.3.05z" fill="#ff5364"/><path id="Shape" d="m57 51c0 5-5.09 5-7 5h-6.27l2.27-4h4c3 0 3-.42 3-1 0-1-.26-1.18-1.48-1.83-1.580319-.6565293-2.8183384-1.9379881-3.42-3.54-.5434516-1.7810452-.0891176-3.7167374 1.19-5.07 1.6267085-1.6144347 4.0152109-2.1922982 6.2-1.5 1.0714324.2761424 1.7161423 1.3685676 1.44 2.44-.2761424 1.0714324-1.3685676 1.7161423-2.44 1.44-.7686345-.3092724-1.6443775-.1792494-2.29.34-.2827809.2866369-.402958.6959902-.32 1.09.17.51.55.76 1.51 1.27 1.36.72 3.61 1.92 3.61 5.36z" fill="#805333"/><path id="Shape" d="m48.87 56h-5.14l2.27-4h2.25c.3099765.8542366.5082848 1.744943.59 2.65v.35c.02.34.03.67.03 1z" fill="#603e26"/><path id="Shape" d="m46 52v-.35c-.2220755-1.9131706-.9086893-3.7429965-2-5.33-1.3030419-2.1087816-3.0335716-3.9210686-5.08-5.32h-21.84c-1.0641008 2.3420653-1.3514252 4.9630241-.82 7.48l4 5.91h21.58c.1803157.9100772.9628307 1.576664 1.89 1.61.2136254-.0039092.4256642-.0375662.63-.1.9612686-.2636788 1.6308096-1.1332656 1.64-2.13 0-.59 0-1.17 0-1.77z" fill="#805333"/><path id="Shape" d="m40 46c.0010867.8401372-.0860579 1.6780658-.26 2.5l-4 5.9-1 1.52c-4.073345 2.7712434-9.426655 2.7712434-13.5 0l-1-1.51-4-5.91c-.5295777-2.5254858-.2351567-5.1542444.84-7.5h21.84c.7151744 1.5696744 1.0835426 3.2750827 1.08 5z" fill="#a56a43"/><path id="Shape" d="m36.2 53.77-1.45 2.15c-4.073345 2.7712434-9.426655 2.7712434-13.5 0l-1.45-2.15c.08-5.17 4.79-7.77 8.2-7.77s8.11 2.59 8.2 7.77z" fill="#fdd7ad"/><ellipse id="Oval" cx="18" cy="53" fill="#f9c795" rx="4" ry="5"/><ellipse id="Oval" cx="38" cy="53" fill="#f9c795" rx="4" ry="5"/><path id="Shape" d="m28 54c-.5522847 0-1-.4477153-1-1v-1c0-.5522847.4477153-1 1-1s1 .4477153 1 1v1c0 .5522847-.4477153 1-1 1z" fill="#cb8252"/><path id="Shape" d="m48 35c0 4.16-7.92 6.69-18.07 7h-3.09c-3.2771841-.032107-6.5443969-.3668624-9.76-1l-.88-.2c-5-1.17-8.2-3.16-8.2-5.81.07251438-1.5557766.79888733-3.0085225 2-4 0-.18-.05-.35-.08-.51s-.09-.47-.14-.68c.00467852-.0197264.00467852-.0402736 0-.06-.32-1.34-.78-2.21-1.15-3.76-.48089316-2.2942251-.69232406-4.6367452-.63-6.98 0-8.07 5.79-13.53 13.87-15.35-.7232216-.49541353-1.0395269-1.40406228-.7802711-2.2414812.2592557-.83741893 1.0336389-1.40840246 1.9102711-1.4085188 2 0 5 1 5 5 0-3 3-3 4-3 1.91 0 2.91.82 3 1.86 7.62 2 13 7.36 13 15.14.0738485 2.3497268-.1343038 4.6998328-.62 7-.37 1.55-.83 2.42-1.15 3.76-.0046785.0197264-.0046785.0402736 0 .06 0 .21-.1.44-.14.68s-.09.32-.09.5c1.2011127.9914775 1.9274856 2.4442234 2 4z" fill="#fdd7ad"/><path id="Shape" d="m29.65 40.76c2-.56 3.35-2 3.35-3.36 0-1.66-2.24-2.4-5-2.4s-5 .74-5 2.4c0 1.45 1.71 3.11 4 3.51z" fill="#802d40"/><path id="Shape" d="m19.43 51c.746966.2303585 1.5305161.3185503 2.31.26 1.8684008-.1956532 3.6228965-.9921942 5-2.27.9664485-.7948599 1.7739545-1.7652243 2.38-2.86.7198311-1.2490097 1.004726-2.701622.81-4.13-.1154612-.8286726-.3833059-1.6288164-.79-2.36-.2562934-.476236-.8055898-.7147534-1.3285422-.5768841-.5229523.1378692-.8832635.6161922-.8714578 1.1568841-.004972.0532175-.004972.1067825 0 .16.0662605.5415642.0323634 1.0906965-.1 1.62-.4398714 1.5597315-1.3731103 2.9350309-2.66 3.92-1.2207128 1.1712743-2.8125971 1.8787784-4.5 2z" fill="#f0c419"/><path id="Shape" d="m16.2 40.81c-2 .82-4.4 2.37-4.95 5.19-.79 4 .34 5.47 2.86 5.87.6624982.0930871 1.331026.1365415 2 .13.9510002.0573115 1.9001271-.1394166 2.75-.57.2160743-.1178714.4091557-.2736914.57-.46.4332051-.5604917.6369849-1.2647833.57-1.97-.0115923-.3815967-.12184-.7536826-.32-1.08-.8347833-1.2079307-2.2116949-1.9263194-3.68-1.92.1158561-1.7101888.4796587-3.39446 1.08-5z" fill="#805333"/><circle id="Oval" cx="36" cy="27.24" fill="#ecf0f1" r="3"/><path id="Shape" d="m26 33c-.5522847 0-1-.4477153-1-1-.5522847 0-1-.4477153-1-1s.4477153-1 1-1c1.1045695 0 2 .8954305 2 2 0 .5522847-.4477153 1-1 1z" fill="#a56a43"/><path id="Shape" d="m30 33c-.5522847 0-1-.4477153-1-1 0-1.1045695.8954305-2 2-2 .5522847 0 1 .4477153 1 1s-.4477153 1-1 1c0 .5522847-.4477153 1-1 1z" fill="#a56a43"/><path id="Shape" d="m15 24c-.1966006.0022477-.3889572-.057208-.55-.17-.456275-.3051825-.5812473-.9211173-.28-1.38 1.2794619-2.0890786 3.7937252-3.0702545 6.15-2.4.2615382.0737865.4817847.2508344.6100573.4904024s.1535238.5210229.0699427.7795976c-.1757093.5203974-.7382565.801671-1.26.63-1.5010131-.4097595-3.0890458.2484924-3.86 1.6-.1935232.2946107-.5278579.4655774-.88.45z" fill="#cb8252"/><path id="Shape" d="m41 24c-.3345191-.0017306-.6460165-.1706148-.83-.45-.7860956-1.3324543-2.3706973-1.9687581-3.86-1.55-.5246382.1707915-1.0884742-.1156015-1.26-.64-.171671-.5217435.1096026-1.0842907.63-1.26 2.3564445-.6738531 4.8728507.3081591 6.15 2.4.3012473.4588827.176275 1.0748175-.28 1.38-.1667699.0952463-.3587128.1371247-.55.12z" fill="#cb8252"/><circle id="Oval" cx="20" cy="27.24" fill="#ecf0f1" r="3"/><path id="Shape" d="m35.22 32.24c.67 0 .7-.47 1.79-1.18.6570518-.458303 1.4221912-.7374754 2.22-.81.5522847 0 1-.4477153 1-1s-.4477153-1-1-1c-.6316904.0271644-1.2540438.1624586-1.84.4-1.0839091.4114838-2.0638147 1.0567874-2.87 1.89-.2801197.2857003-.3629755.7108712-.210632 1.0808485.1523436.3699772.5105568.6135314.910632.6191515z" fill="#cf976a"/><path id="Shape" d="m20.78 32.24c-.67 0-.7-.47-1.79-1.18-.661886-.4506144-1.4241165-.732159-2.22-.82-.5522847 0-1-.4477153-1-1s.4477153-1 1-1c.6318383.0335944 1.2536739.1721556 1.84.41 1.0839091.4114838 2.0638147 1.0567874 2.87 1.89.2801197.2857003.3629755.7108712.210632 1.0808485-.1523436.3699772-.5105568.6135314-.910632.6191515z" fill="#cf976a"/><path id="Shape" d="m48 19c.0738485 2.3497268-.1343038 4.6998328-.62 7-.37 1.55-.83 2.42-1.15 3.76.1825851-1.1087932.2994557-2.2274115.35-3.35.42-11.04-7.14-13.41-11.58-13.41-2.887058-.0385895-5.5675092 1.4930969-7 4-1.4324908-2.5069031-4.112942-4.0385895-7-4-4.86 0-13.49 2.83-11.23 16.75-.32-1.34-.78-2.21-1.15-3.76-.47831285-2.2978841-.68639137-4.6438016-.62-6.99 0-7.58 5.11-12.86 12.42-15 .48-.14 1-.26 1.45-.37-.7050796-.50112035-1.0080872-1.39873108-.7509805-2.22465784s1.0160496-1.39295787 1.8809805-1.40534216c2 0 5 1 5 5 0-3 3-3 4-3 1.91 0 2.91.82 3 1.86.68.18 1.35.38 2 .62 6.54 2.36 11 7.44 11 14.52z" fill="#a56a43"/><path id="Shape" d="m35 3.87c-.0042781.04322775-.0042781.08677225 0 .13 0 .64 0 1.09-.42 1.41-.2045071.16954816-.3331478.41350078-.3575369.67802851s.057478.52788887.2275369.73197149c.1903565.2285401.4725678.36048303.77.36.2309736.0170818.4607152-.04653894.65-.18.7333212-.62539368 1.1479505-1.54638442 1.13-2.51-.64-.24-1.31-.44-2-.62z" fill="#805333"/><path id="Shape" d="m25.4 7.84c.0403785.54552754-.3650673 1.02226053-.91 1.07h-.09c-.5224937.00167446-.958203-.39917807-1-.92-.11-1.3-.5-2.17-1-2.17-.607247-.00054168-1.2000334-.18535156-1.7-.53-.4041969-.2985701-.5240448-.85072628-.28-1.29.48-.14 1-.26 1.45-.37.1672045.11671068.366092.17951724.57.18.61.02 2.66.31 2.96 4.03z" fill="#805333"/><circle id="Oval" cx="20.5" cy="27.5" fill="#35495e" r="1.5"/><circle id="Oval" cx="35.5" cy="27.5" fill="#35495e" r="1.5"/><g fill="#ecf0f1"><circle id="Oval" cx="19" cy="27" r="1"/><circle id="Oval" cx="37" cy="27" r="1"/></g></g></g></svg>