<svg height="512" viewBox="0 0 58 59" width="512" xmlns="http://www.w3.org/2000/svg"><g id="Page-1" fill="none" fill-rule="evenodd"><g id="029---Monkey-Girl" fill-rule="nonzero"><path id="Shape" d="m39 59h8c2.72 0 11 0 11-8 0-8.7-4.39-10-7-10-2.179126-.0804012-4.2349366 1.0104371-5.39 2.86-1.11965 1.8100524-1.2694692 4.0573396-.4 6 .5106753.9522807 1.68541 1.3267346 2.6529784.8456531.9675683-.4810814 1.378052-1.6437165.9270216-2.6256531-.2427421-.6900705-.1657785-1.4523763.21-2.08.4272553-.6810601 1.1987987-1.0668318 2-1 .74 0 3 0 3 6 0 3-1.77 4-7 4h-2.11z" fill="#a56a43"/><path id="Shape" d="m37.57 41.94c1.7334191 2.3953818 2.9056987 5.150068 3.43 8.06.18 1.11.3 2.11.36 3l-.36 6h-24l-.36-6c.06-.9.18-1.9.36-3 .5243013-2.909932 1.6965809-5.6646182 3.43-8.06z" fill="#a56a43"/><path id="Shape" d="m24 55c-.5522847 0-1-.4477153-1-1s.4477153-1 1-1c.6180537.046005 1.2329487-.1236212 1.74-.48.2330861-.1736394.3790914-.440099.4-.73 0-.48-.45-.79-1.14-.79h-4c-.5522847 0-1-.4477153-1-1 .1040098-1.0252362.5598352-1.9828228 1.29-2.71.3921222-.3921222 1.0278778-.3921222 1.42 0s.3921222 1.0278778 0 1.42c-.0930362.0878583-.1768085.1850342-.25.29h2.54c.7930243-.0751577 1.5816125.1826555 2.1770869.7117553.5954743.5290998.9442624 1.2818852.9629131 2.0782447-.0221612.8916814-.4399516 1.7272622-1.14 2.28-.8626349.6470669-1.9226191.975662-3 .93z" fill="#805333"/><path id="Shape" d="m34 55c-1.0773809.045662-2.1373651-.2829331-3-.93-.7000484-.5527378-1.1178388-1.3883186-1.14-2.28.0186507-.7963595.3674388-1.5491449.9629131-2.0782447.5954744-.5290998 1.3840626-.786913 2.1770869-.7117553h2.54c-.0758417-.1060124-.1594019-.2062846-.25-.3-.3893607-.3921222-.3871221-1.0256392.005-1.415.3921222-.3893607 1.0256392-.3871221 1.415.005.7301648.7271772 1.1859902 1.6847638 1.29 2.71 0 .5522847-.4477153 1-1 1h-4c-.69 0-1.14.31-1.14.79.0209086.289901.1669139.5563606.4.73.5070513.3563788 1.1219463.526005 1.74.48.5522847 0 1 .4477153 1 1s-.4477153 1-1 1z" fill="#805333"/><path id="Shape" d="m8.51 19.22c-1.37913617-.7738002-2.92884377-1.1930116-4.51-1.22-4 0-4 4-4 7s2 7 5 7c1.18040636-.0077744 2.33967713-.3139319 3.37-.89z" fill="#fb7b76"/><path id="Shape" d="m49.49 19.22c1.3791362-.7738002 2.9288438-1.1930116 4.51-1.22 4 0 4 4 4 7s-2 7-5 7c-1.1804064-.0077744-2.3396771-.3139319-3.37-.89z" fill="#fb7b76"/><path id="Shape" d="m5 27c-1.45 0-2.5-1.26-2.5-3-.02281425-.6780756.1508181-1.3482965.5-1.93.43360691-.6819524 1.19206449-1.0877272 2-1.07 1.75802625.1740473 3.39795028.9639027 4.63 2.23l.15.14c.3288646.4092896.2851936 1.0032146-.1 1.36-.38884351.3811429-1.01115649.3811429-1.4 0-.86264552-.9356733-2.0206541-1.5464522-3.28-1.73-.09 0-.18 0-.29.18-.14572164.2481455-.21850747.5323568-.21.82 0 .42.16 1 .5 1 .55228475 0 1 .4477153 1 1s-.44771525 1-1 1z" fill="#ff5364"/><path id="Shape" d="m53 27c-.5522847 0-1-.4477153-1-1s.4477153-1 1-1c.09 0 .18 0 .29-.18.1457216-.2481455.2185075-.5323568.21-.82 0-.42-.16-1-.5-1-1.255388.1754716-2.4128834.775393-3.28 1.7-.3009237.2807365-.7352434.3660493-1.12.22l.4-.92-.66-.75c.92-.85 2.72-2.25 4.66-2.25 1.45 0 2.5 1.26 2.5 3 .0228142.6780756-.1508181 1.3482965-.5 1.93-.4336069.6819524-1.1920645 1.0877272-2 1.07z" fill="#ff5364"/><path id="Shape" d="m50 27.8c0-3.45-.12-10-1.83-13.3-3.47-6.81-11.73-9.5-19.17-9.5s-15.7 2.69-19.17 9.5c-1.71 3.34-1.83 9.85-1.83 13.3 0 10.49 9.91 15.2 21 15.2s21-4.71 21-15.2z" fill="#fdd7ad"/><path id="Shape" d="m49.22 17.72c-3.87-5.84-8.47-6.72-12.22-6.72-4 0-5 2-8 2s-4-2-8-2c-3.75 0-8.35.88-12.22 6.72.21364547-1.1131025.56641272-2.194922 1.05-3.22 3.47-6.81 11.73-9.5 19.17-9.5s15.7 2.69 19.17 9.5c.4835873 1.025078.8363545 2.1068975 1.05 3.22z" fill="#a56a43"/><path id="Shape" d="m29 10c-.5522847 0-1-.44771525-1-1v-1c0-.59-.59-1.17-1.21-1.79-1.0130707-.77800362-1.6606075-1.93922876-1.79-3.21 0-2.37 2.62-3 4-3 .5522847 0 1 .44771525 1 1s-.4477153 1-1 1c0 0-2 .06-2 1 0 .59.59 1.17 1.21 1.79 1.0130707.77800362 1.6606075 1.93922876 1.79 3.21v1c0 .55228475-.4477153 1-1 1z" fill="#cf976a"/><path id="Shape" d="m17 59c-2 0-4-1-4-3s1-3 4-3h8c2 0 2 2 2 3s0 3-2 3z" fill="#cb8252"/><path id="Shape" d="m41 59c2 0 4-1 4-3s-1-3-4-3h-8c-2 0-2 2-2 3s0 3 2 3z" fill="#cb8252"/><path id="Shape" d="m30 26h-2c-.5522847 0-1 .4477153-1 1s.4477153 1 1 1c0 .5522847.4477153 1 1 1s1-.4477153 1-1c.5522847 0 1-.4477153 1-1s-.4477153-1-1-1z" fill="#fb7b76"/><path id="Shape" d="m33 34c-1.2594619.093211-2.5177171-.1960831-3.61-.83-.27-.17-.31-.17-.39-.17s-.12 0-.39.17c-1.0922829.6339169-2.3505381.923211-3.61.83-3.16 0-4-2-4-3 0-.5522847.4477153-1 1-1s1 .4477153 1 1c0 .14.16 1 2 1 .9068075.0848214 1.8178057-.1106418 2.61-.56.834228-.5853539 1.945772-.5853539 2.78 0 .7921943.4493582 1.7031925.6448214 2.61.56 1.84 0 2-.86 2-1 0-.5522847.4477153-1 1-1s1 .4477153 1 1c0 1-.84 3-4 3z" fill="#802d40"/><path id="Shape" d="m45.61 9 5.28.32c.3646257.01498382.6921361.22740461.8545061.55422628.16237.32682162.1338137.71614182-.0745061 1.01577372l-3.59 4.88c-.2230311.2878436-.584898.4317005-.9446811.3755494-.3597832-.0561511-.6606052-.3034334-.7853189-.6455494l-1.88-4.94-3.23-2.4-5.24-.32c-.3646257-.01498382-.6921361-.22740461-.8545061-.55422628-.16237-.32682166-.1338137-.71614182.0745061-1.01577372l3.59-4.88c.2230311-.28784365.584898-.43170053.9446811-.37554941.3597832.05615113.6606052.30343344.7853189.64554941l1.85 4.94z" fill="#f29c1f"/><path id="Shape" d="m12 25c-.5522847 0-1-.4477153-1-1s.4477153-1 1-1c.5019795-.0232811.9737449-.2465594 1.31-.62 1.0008217-.9270975 2.3264321-1.4228543 3.69-1.38.5522847 0 1 .4477153 1 1s-.4477153 1-1 1c-.9039666-.0406837-1.7841745.296186-2.43.93-.6915832.6672323-1.6092412 1.0492922-2.57 1.07z" fill="#3f5c6c"/><path id="Shape" d="m46 25c-.9607588-.0207078-1.8784168-.4027677-2.57-1.07-.6458255-.633814-1.5260334-.9706837-2.43-.93-.5522847 0-1-.4477153-1-1s.4477153-1 1-1c1.3635679-.0428543 2.6891783.4529025 3.69 1.38.3362551.3734406.8080205.5967189 1.31.62.5522847 0 1 .4477153 1 1s-.4477153 1-1 1z" fill="#3f5c6c"/><circle id="Oval" cx="17" cy="25" fill="#ecf0f1" r="4"/><circle id="Oval" cx="41" cy="25" fill="#ecf0f1" r="4"/><circle id="Oval" cx="17.5" cy="25.5" fill="#3f5c6c" r="2.5"/><circle id="Oval" cx="40.5" cy="25.5" fill="#3f5c6c" r="2.5"/><circle id="Oval" cx="15.5" cy="23.5" fill="#ecf0f1" r="1.5"/><circle id="Oval" cx="42.5" cy="23.5" fill="#ecf0f1" r="1.5"/><rect id="Rectangle-path" fill="#f0c419" height="4" rx="1" transform="matrix(.806 .592 -.592 .806 13.486 -24.04)" width="4" x="41.431" y="6.561"/></g></g></svg>