<svg height="512" viewBox="0 0 57 58" width="512" xmlns="http://www.w3.org/2000/svg"><g id="Page-1" fill="none" fill-rule="evenodd"><g id="006---Monkey-Girl" fill-rule="nonzero"><path id="Shape" d="m57 51c0 5-5.09 5-7 5h-6.27l2.27-4h4c3 0 3-.42 3-1 0-1-.26-1.18-1.48-1.83-1.580319-.6565293-2.8183384-1.9379881-3.42-3.54-.5434516-1.7810452-.0891176-3.7167374 1.19-5.07 1.6267085-1.6144347 4.0152109-2.1922982 6.2-1.5 1.0714324.2761424 1.7161423 1.3685676 1.44 2.44-.2761424 1.0714324-1.3685676 1.7161423-2.44 1.44-.7686345-.3092724-1.6443775-.1792494-2.29.34-.2827809.2866369-.402958.6959902-.32 1.09.17.51.55.76 1.51 1.27 1.36.72 3.61 1.92 3.61 5.36z" fill="#805333"/><path id="Shape" d="m48.87 56h-5.14l2.27-4h2.25c.3099765.8542366.5082848 1.744943.59 2.65v.35c.02.34.03.67.03 1z" fill="#603e26"/><path id="Shape" d="m41.84 54.4c.1843734.9061195.9658769 1.5677097 1.89 1.6.2136254-.0039092.4256642-.0375662.63-.1.9612686-.2636788 1.6308096-1.1332656 1.64-2.13 0-.59 0-1.17 0-1.77v-.35c-.2220755-1.9131706-.9086893-3.7429965-2-5.33-1.3030419-2.1087816-3.0335716-3.9210686-5.08-5.32h-21.84c-2.0464284 1.3989314-3.7769581 3.2112184-5.08 5.32-1.4642973 2.1974098-2.16692005 4.8146795-2 7.45 0 2.27 3.38 3.33 4.16.64z" fill="#805333"/><path id="Shape" d="m38.92 41c1.0641008 2.3420653 1.3514252 4.9630241.82 7.48l-5 7.42c-4.073345 2.7712434-9.426655 2.7712434-13.5 0l-5-7.42c-.5251797-2.5190972-.2308386-5.1401348.84-7.48z" fill="#a56a43"/><path id="Shape" d="m36.2 53.77-1.45 2.15c-4.073345 2.7712434-9.426655 2.7712434-13.5 0l-1.45-2.15c.08-5.17 4.79-7.77 8.2-7.77s8.11 2.59 8.2 7.77z" fill="#fdd7ad"/><ellipse id="Oval" cx="18" cy="53" fill="#f9c795" rx="4" ry="5"/><ellipse id="Oval" cx="38" cy="53" fill="#f9c795" rx="4" ry="5"/><path id="Shape" d="m28 54c-.5522847 0-1-.4477153-1-1v-1c0-.5522847.4477153-1 1-1s1 .4477153 1 1v1c0 .5522847-.4477153 1-1 1z" fill="#cb8252"/><path id="Shape" d="m48 35c3 0 8 0 8-4s-2-6-5-6c-1.26386.0732617-2.4977487.4141149-3.62 1h-38.77c-1.11876353-.5856634-2.34935018-.9265461-3.61-1-3 0-5 2-5 6s5 4 8 4z" fill="#fb7b76"/><path id="Shape" d="m12.21 33.79c-.2637693-.003757-.5153695-.1115857-.7-.3l-2.09-2.08c-1.45813039-.2684072-2.93737817-.4056225-4.42-.41-.55228475 0-1-.4477153-1-1s.44771525-1 1-1c1.70868687.0048104 3.41303785.1722319 5.09.5.2107343.0385071.4035328.1436699.55.3l2.28 2.28c.3877236.3900375.3877236 1.0199625 0 1.41-.1870714.1908556-.4427541.2988906-.71.3z" fill="#ff5364"/><path id="Shape" d="m43.79 33.79c-.2672459-.0011094-.5229286-.1091444-.71-.3-.3877236-.3900375-.3877236-1.0199625 0-1.41l2.29-2.3c.1507232-.1413615.3376165-.2382691.54-.28 1.6769622-.3277681 3.3813131-.4951896 5.09-.5.5522847 0 .9999999.4477153.9999999 1s-.4477152 1-.9999999 1c-1.4826218.0043775-2.9618696.1415928-4.42.41l-2.09 2.08c-.1846305.1884143-.4362307.296243-.7.3z" fill="#ff5364"/><path id="Shape" d="m37 4.49c6.54 2.35 11 7.43 11 14.51.0738485 2.3497268-.1343038 4.6998328-.62 7-.37 1.55-.83 2.42-1.15 3.76-.0046785.0197264-.0046785.0402736 0 .06 0 .21-.1.44-.14.68s-.09.32-.09.5c1.2011127.9914775 1.9274856 2.4442234 2 4 0 4.42-9 7-20 7s-20-2.58-20-7c.07251438-1.5557766.79888733-3.0085225 2-4 0-.18-.05-.35-.08-.51s-.09-.47-.14-.68c.00467852-.0197264.00467852-.0402736 0-.06-.32-1.34-.78-2.21-1.15-3.76-.48166942-2.2974893-.69310441-4.6434109-.63-6.99 0-7.08 4.46-12.15 11-14.52z" fill="#fdd7ad"/><g fill="#a56a43"><path id="Shape" d="m48 19c.0738485 2.3497268-.1343038 4.6998328-.62 7-.37 1.55-.83 2.42-1.15 3.76.1825851-1.1087932.2994557-2.2274115.35-3.35.42-11.04-7.14-13.41-11.58-13.41-2.887058-.0385895-5.5675092 1.4930969-7 4-1.4324908-2.5069031-4.112942-4.0385895-7-4-4.86 0-13.49 2.83-11.23 16.75-.32-1.34-.78-2.21-1.15-3.76-.47831285-2.2978841-.68639137-4.6438016-.62-6.99 0-7.08 4.46-12.15 11-14.52h18c6.54 2.36 11 7.44 11 14.52z"/><path id="Shape" d="m26 34c-.5522847 0-1-.4477153-1-1-.5522847 0-1-.4477153-1-1s.4477153-1 1-1c1.1045695 0 2 .8954305 2 2 0 .5522847-.4477153 1-1 1z"/><path id="Shape" d="m30 34c-.5522847 0-1-.4477153-1-1 0-1.1045695.8954305-2 2-2 .5522847 0 1 .4477153 1 1s-.4477153 1-1 1c0 .5522847-.4477153 1-1 1z"/></g><path id="Shape" d="m15 24c-.1966006.0022477-.3889572-.057208-.55-.17-.456275-.3051825-.5812473-.9211173-.28-1.38 1.2794619-2.0890786 3.7937252-3.0702545 6.15-2.4.2615382.0737865.4817847.2508344.6100573.4904024s.1535238.5210229.0699427.7795976c-.1757093.5203974-.7382565.801671-1.26.63-1.5010131-.4097595-3.0890458.2484924-3.86 1.6-.1935232.2946107-.5278579.4655774-.88.45z" fill="#cb8252"/><path id="Shape" d="m41 24c-.3345191-.0017306-.6460165-.1706148-.83-.45-.7860956-1.3324543-2.3706973-1.9687581-3.86-1.55-.5246382.1707915-1.0884742-.1156015-1.26-.64-.171671-.5217435.1096026-1.0842907.63-1.26 2.3564445-.6738531 4.8728507.3081591 6.15 2.4.3012473.4588827.176275 1.0748175-.28 1.38-.1667699.0952463-.3587128.1371247-.55.12z" fill="#cb8252"/><path id="Shape" d="m30 3 5.61-2.91c.332702-.14536344.7180554-.09897824 1.0067589.12118413s.4353952.57950943.3832411.93881587v5.7c.0521541.35930644-.0945376.7186535-.3832411.93881587s-.6740569.26654757-1.0067589.12118413l-5.61-2.91h-4l-5.61 2.91c-.332702.14536344-.7180554.09897824-1.0067589-.12118413s-.4353952-.57950943-.3832411-.93881587v-5.7c-.0521541-.35930644.0945376-.7186535.3832411-.93881587.2887035-.22016237.6740569-.26654757 1.0067589-.12118413l5.61 2.91z" fill="#df4d60"/><path id="Shape" d="m19 28c-1.348652.0120784-2.6597752-.4438108-3.71-1.29-.3921222-.3921222-.3921222-1.0278778 0-1.42s1.0278778-.3921222 1.42 0c.6701492.4706326 1.4711506.7189781 2.29.71.5522847 0 1 .4477153 1 1s-.4477153 1-1 1z" fill="#3f5c6c"/><path id="Shape" d="m37 28c-.5522847 0-1-.4477153-1-1s.4477153-1 1-1c.8188494.0089781 1.6198508-.2393674 2.29-.71.3921222-.3921221 1.0278778-.3921221 1.42 0 .3921221.3921222.3921221 1.0278778 0 1.42-1.0502248.8461892-2.361348 1.3020784-3.71 1.29z" fill="#3f5c6c"/><path id="Shape" d="m30 37c-.3697971-.0567823-.716253-.2161521-1-.46v-.54c0-.5522847-.4477153-1-1-1s-1 .4477153-1 1v.54c-.283747.2438479-.6302029.4032177-1 .46-.5522847 0-1 .4477153-1 1s.4477153 1 1 1c.7236966-.0344497 1.420406-.2852651 2-.72.579594.4347349 1.2763034.6855503 2 .72.5522847 0 1-.4477153 1-1s-.4477153-1-1-1z" fill="#802d40"/><rect id="Rectangle-path" fill="#ff5364" height="4" rx="1" width="4" x="26" y="2"/><circle id="Oval" cx="19" cy="29.5" fill="#ecf0f1" r="3.5"/><circle id="Oval" cx="37" cy="29.5" fill="#ecf0f1" r="3.5"/><circle id="Oval" cx="20" cy="30" fill="#35495e" r="2"/><circle id="Oval" cx="36" cy="30" fill="#35495e" r="2"/><circle id="Oval" cx="19" cy="29" fill="#ecf0f1" r="1"/><circle id="Oval" cx="37" cy="29" fill="#ecf0f1" r="1"/></g></g></svg>