<svg height="512" viewBox="0 0 56 59" width="512" xmlns="http://www.w3.org/2000/svg"><g id="Page-1" fill="none" fill-rule="evenodd"><g id="019---Monkey" fill-rule="nonzero"><path id="Shape" d="m40.85 53h5.15c.06 0 6 0 6-3 0-3.2-.56-4.55-3.89-6.21-2.385037-1.1105024-3.6443349-3.7592257-3-6.31.61-2.73 3.31-5.48 7.89-5.48 1.1045695 0 2 .8954305 2 2s-.8954305 2-2 2c-2.38 0-3.76 1.24-4 2.4-.210321.750741.1895489 1.5374415.92 1.81 4.48 2.25 6.08 4.79 6.08 9.79 0 5.17-5.39 7-10 7h-6.17z" fill="#805333"/><path id="Shape" d="m20 58h-13c-4 0-4-11-1-11s3 3 3 2 1-4 5-4c.6050453-.0055548 1.2077875.0752597 1.79.24z" fill="#a56a43"/><path id="Shape" d="m41 49c0 7-1 9-3 9h-20c-3 0-4-4-4-7 0-2.35 2.46-8.39 6.42-12.82.4617933-.5300435.9525424-1.0341463 1.47-1.51l15.62-1.3c.2.47.4 1 .61 1.51 1.37 3.5 2.88 8.27 2.88 12.12z" fill="#a56a43"/><path id="Shape" d="m32.29 35.8c-.7316.8418623-1.3378509 1.7849193-1.8 2.8-.3541748.7518868-.5482763 1.5691561-.57 2.4 0 0-4.92-1-6.92 3-.4841358 1.0315679-.6645028 2.1796731-.52 3.31-.4629206-.2157994-.969389-.321884-1.48-.31-3 0-3 11 1 11h-4c-3 0-4-4-4-7 0-2.35 2.46-8.39 6.42-12.82.19-.22.39-.44.6-.65s.57-.58.87-.86z" fill="#fdd7ad"/><path id="Shape" d="m38.12 36.88c-2.4420532.9547917-5.0144868 1.534685-7.63 1.72.4621491-1.0150807 1.0684-1.9581377 1.8-2.8l5.22-.43c.2.47.4.97.61 1.51z" fill="#805333"/><path id="Shape" d="m32.29 35.8c-.7316.8418623-1.3378509 1.7849193-1.8 2.8-1.13.1-2.3.15-3.49.15-2.2064746.0198242-4.4098029-.1710417-6.58-.57.19-.22.39-.44.6-.65s.57-.58.87-.86z" fill="#f9c795"/><path id="Shape" d="m35 47.68c-.1-.15-1.33-3.68-6-3.68-2.1909282-.1576712-4.2797153.9488424-5.38 2.85l-.17-.11c-.0393548-.7875912.1115679-1.5730753.44-2.29 1.63-3.25 5.66-2.45 5.83-2.45.2941583.0579624.5988028-.0191164.83-.21.232277-.18842.3680222-.4709167.37-.77 0-2.26 2.21-4.71 2.66-5.12.3789689-.2440532.5478189-.7114772.4123063-1.1413792-.1355125-.429902-.5418874-.7160051-.9923063-.6986208-1 0-3.37 3.09-3.94 5.83-2.8367015-.2890895-5.5694092 1.1541587-6.93 3.66-.3870899.7628107-.6150406 1.5963617-.67 2.45-.15 0-.3 0-.46 0-1.91 0-3.14 2.32-3.14 5.91-.0288158 1.5586707.2604057 3.1068564.85 4.55.74 1.64 1.9 2.54 3.29 2.54 4.94 0 5-2.88 5-3 0-.5522847-.4477153-1-1-1s-1 .4477153-1 1c0 .31-.74 1-3 1-.57 0-1.06-.46-1.46-1.35-.472396-1.1892501-.7035466-2.4605785-.68-3.74 0-2.53.75-3.91 1.14-3.91.9291659-.0857218 1.7805946.5230498 2 1.43.1196163.5192704.625403.8535294 1.15.76.32 0 .85-.27.85-1.19 0 0 .24-3 4-3 3.17 0 4 2.21 4 2.32.1767311.5246705.7453295.8067311 1.27.63s.8067311-.7453295.63-1.27z" fill="#805333"/><path id="Shape" d="m7.49 25.46c-1.13801186.3167947-2.30946195.4980505-3.49.54-3 0-4-4-4-7s1-7 4-7c1.64683249.0919885 3.27427107.4013363 4.84.92z" fill="#fb7b76"/><path id="Shape" d="m7.26 18.68c-.12348176.0010635-.24591394-.0227428-.36-.07-.92367116-.3709799-1.90514645-.5774282-2.9-.61-.55228475 0-1-.4477153-1-1s.44771525-1 1-1c1.24116216.0370551 2.46628257.2908784 3.62.75.44524982.1759347.70334236.6427624.61555618 1.1133939-.08778619.4706315-.49682079.813021-.97555618.8166061z" fill="#ff5364"/><path id="Shape" d="m55 19c0 3-1 7-4 7-1.5042384-.0740061-2.9929053-.3394794-4.43-.79-.1443118.655954-.3347859 1.3008928-.57 1.93-2.58 7.27-10.11 9.86-19 9.86-11 0-20-4-20-16 0-6 2.27-10.06 5.94-12.54.653229-.44325519 1.3422832-.83126625 2.06-1.16-5.25-2.43-2-7.3-2-7.3.5730289 1.73934294 2.1697827 2.93690827 4 3 .6890356-1.26892977 1.7310702-2.31096443 3-3 0 4 5 5 7 5 7.31 0 13.71 1.75 17.2 6.43.4094832.5497788.7739963 1.1316621 1.09 1.74 1.8392348-.6551728 3.7613086-1.0490128 5.71-1.17 3 0 4 4 4 7z" fill="#a56a43"/><path id="Shape" d="m16.76 8.84c-.116766.45319995-.5322336.76480059-1 .75h-.24c-.7630161-.18475949-1.5064521-.44261793-2.22-.77-.1563797-.07437716-.2907652-.18808799-.39-.33.6617612-.45505588 1.3609349-.85315 2.09-1.19.33.11.7.22 1.09.32.5161386.15901707.812758.69912987.67 1.22z" fill="#805333"/><path id="Shape" d="m40 20c0 3.33 0 16-10.64 16.93h-.05c-.76.0466667-1.53.07-2.31.07-11 0-20-4-20-16-.14234602-3.3847586.82314197-6.7235917 2.75-9.51 1.3883443-.3528483 2.8177859-.5176545 4.25-.49 7 0 8 2 8 2s2-2 9-2 9 5 9 9z" fill="#fdd7ad"/><path id="Shape" d="m45.29 13.17c-1.13.37-1.94.69-1.95.7-.1177876.0465537-.2433466.0703081-.37.07-.4911782.0147786-.9203073-.329503-1.0123686-.8122029-.0920613-.4826998.1802299-.9607575.6423686-1.1277971 0 0 .66-.26 1.6-.58.4099418.5529776.7744647 1.1382207 1.09 1.75z" fill="#805333"/><path id="Shape" d="m46.57 25.22c-.1447655.6525683-.3352351 1.2941503-.57 1.92-.7-.2-1.42-.44-2.15-.7-.358433-.1021733-.6303011-.3952036-.7053706-.7602764s.0591183-.7415999.3481546-.9769116c.2890364-.2353117.684952-.2903551 1.027216-.142812.48.17 1.23.44 2.05.66z" fill="#805333"/><circle id="Oval" cx="30" cy="21" fill="#ecf0f1" r="4"/><circle id="Oval" cx="14" cy="21" fill="#ecf0f1" r="4"/><path id="Shape" d="m24 32c-.8367673-.0713029-1.5847792-.5500306-2-1.28v-1.72c0-.5522847-.4477153-1-1-1s-1 .4477153-1 1v1.75c-.2415655.4824527-.582341.908422-1 1.25-.5522847 0-1 .4477153-1 1s.4477153 1 1 1c.8376991-.0916229 1.5919039-.5492714 2.06-1.25.7987022.7552733 1.8419362 1.1988251 2.94 1.25.5522847 0 1-.4477153 1-1s-.4477153-1-1-1z" fill="#802d40"/><path id="Shape" d="m48 21c-.1083837-.0027187-.2159531-.0195264-.32-.05-1.6045797-.4296266-3.1004808-1.192911-4.39-2.24-.2439453-.2469674-.3423609-.6027777-.26-.94.0779701-.3360516.3236455-.6081843.65-.72 1.7213009-.5754353 3.5091462-.9282994 5.32-1.05.5522847 0 1 .4477153 1 1s-.4477153 1-1 1c-.8400705.0279519-1.6747764.1452801-2.49.35.5898495.266804 1.1941213.5005002 1.81.7.2615382.0737865.4817847.2508344.6100573.4904024s.1535238.5210229.0699427.7795976c-.1429939.4253709-.5518476.7033915-1 .68z" fill="#805333"/><path id="Shape" d="m23 26c0 1.11-.9 3-2 3s-2-1.89-2-3 .9-1 2-1 2-.1 2 1z" fill="#fb7b76"/><circle id="Oval" cx="15" cy="21" fill="#3f5c6c" r="2"/><circle id="Oval" cx="29" cy="21" fill="#3f5c6c" r="2"/><g fill="#ecf0f1"><circle id="Oval" cx="14" cy="20" r="1"/><circle id="Oval" cx="30" cy="20" r="1"/></g></g></g></svg>