<svg height="512" viewBox="0 0 57 59" width="512" xmlns="http://www.w3.org/2000/svg"><g id="Page-1" fill="none" fill-rule="evenodd"><g id="005---Happy-Monkey" fill-rule="nonzero" transform="translate(0 -1)"><path id="Shape" d="m57 53c0 5-5.09 5-7 5h-6.27l2.27-4h4c3 0 3-.42 3-1 0-1-.26-1.18-1.48-1.83-1.580319-.6565293-2.8183384-1.9379881-3.42-3.54-.5434516-1.7810452-.0891176-3.7167374 1.19-5.07 1.6267085-1.6144347 4.0152109-2.1922982 6.2-1.5 1.0714324.2761424 1.7161423 1.3685676 1.44 2.44-.2761424 1.0714324-1.3685676 1.7161423-2.44 1.44-.7686345-.3092724-1.6443775-.1792494-2.29.34-.2827809.2866369-.402958.6959902-.32 1.09.17.51.55.76 1.51 1.27 1.36.72 3.61 1.92 3.61 5.36z" fill="#805333"/><path id="Shape" d="m48.87 58h-5.14l2.27-4h2.25c.3099765.8542366.5082848 1.744943.59 2.65v.35c.02.34.03.67.03 1z" fill="#603e26"/><path id="Shape" d="m48 37c3 0 8 0 8-4s-2-6-5-6c-1.26386.0732617-2.4977487.4141149-3.62 1h-38.77c-1.11876353-.5856634-2.34935018-.9265461-3.61-1-3 0-5 2-5 6s5 4 8 4z" fill="#fb7b76"/><path id="Shape" d="m12.21 35.79c-.2637693-.003757-.5153695-.1115857-.7-.3l-2.09-2.08c-1.45813039-.2684072-2.93737817-.4056225-4.42-.41-.55228475 0-1-.4477153-1-1s.44771525-1 1-1c1.70868687.0048104 3.41303785.1722319 5.09.5.2107343.0385071.4035328.1436699.55.3l2.28 2.28c.3877236.3900375.3877236 1.0199625 0 1.41-.1870714.1908556-.4427541.2988906-.71.3z" fill="#ff5364"/><path id="Shape" d="m44.29 35.29c-.2672459-.0011094-.5229286-.1091444-.71-.3-.3877236-.3900375-.3877236-1.0199625 0-1.41l1.79-1.8c.1507232-.1413615.3376165-.2382691.54-.28 1.6769622-.3277681 3.3813131-.4951896 5.09-.5.5522847 0 .9999999.4477153.9999999 1s-.4477152 1-.9999999 1c-1.4826218.0043775-2.9618696.1415928-4.42.41l-1.58 1.59c-.1887188.1871865-.444197.2915368-.71.29z" fill="#ff5364"/><path id="Shape" d="m46 55.77c-.0091904.9967344-.6787314 1.8663212-1.64 2.13-.2043358.0624338-.4163746.0960908-.63.1-.9241231-.0322903-1.7056266-.6938805-1.89-1.6h-6.07l4-5.9c.5264578-2.5265497.2285273-5.1553486-.85-7.5 2.0464284 1.3989314 3.7769581 3.2112184 5.08 5.32 1.0665063 1.5936334 1.7289203 3.4229945 1.93 5.33l.07.35z" fill="#a56a43"/><path id="Shape" d="m40 48c.0010867.8401372-.0860579 1.6780658-.26 2.5l-4 5.9h-21.58c-.78 2.7-4.16 1.6-4.16-.63-.16692005-2.6353205.5357027-5.2525902 2-7.45 1.3030419-2.1087816 3.0335716-3.9210686 5.08-5.32h21.84c.7151744 1.5696744 1.0835426 3.2750827 1.08 5z" fill="#805333"/><path id="Shape" d="m40 48c.0010867.8401372-.0860579 1.6780658-.26 2.5l-4 5.9-1 1.52c-4.073345 2.7712434-9.426655 2.7712434-13.5 0l-1-1.51-4-5.91c-.5295777-2.5254858-.2351567-5.1542444.84-7.5h21.84c.7151744 1.5696744 1.0835426 3.2750827 1.08 5z" fill="#a56a43"/><path id="Shape" d="m36.2 55.77-1.45 2.15c-4.073345 2.7712434-9.426655 2.7712434-13.5 0l-1.45-2.15c.08-5.17 4.79-7.77 8.2-7.77s8.11 2.59 8.2 7.77z" fill="#fdd7ad"/><path id="Shape" d="m21.87 5.65c-8.08 1.82-13.87 7.28-13.87 15.35-.07046032 2.3491409.13426572 4.6984561.61 7 .37 1.55.83 2.42 1.15 3.76.00467852.0197264.00467852.0402736 0 .06.05.21.1.44.14.68s.06.33.08.51c-1.20111267.9914775-1.92748562 2.4442234-2 4 0 4.42 9 7 20 7s20-2.58 20-7c-.0725144-1.5557766-.7988873-3.0085225-2-4 0-.18 0-.35.08-.51s.09-.47.14-.68c-.0046785-.0197264-.0046785-.0402736 0-.06.32-1.34.78-2.21 1.15-3.76.4957684-2.2989515.7139937-4.6490706.65-7 0-7.78-5.39-13.15-13-15.14z" fill="#fdd7ad"/><ellipse id="Oval" cx="18" cy="55" fill="#f9c795" rx="4" ry="5"/><ellipse id="Oval" cx="38" cy="55" fill="#f9c795" rx="4" ry="5"/><path id="Shape" d="m28 56c-.5522847 0-1-.4477153-1-1v-1c0-.5522847.4477153-1 1-1s1 .4477153 1 1v1c0 .5522847-.4477153 1-1 1z" fill="#cb8252"/><path id="Shape" d="m26 37c-.5522847 0-1-.4477153-1-1-.5522847 0-1-.4477153-1-1s.4477153-1 1-1c1.1045695 0 2 .8954305 2 2 0 .5522847-.4477153 1-1 1z" fill="#a56a43"/><path id="Shape" d="m30 37c-.5522847 0-1-.4477153-1-1 0-1.1045695.8954305-2 2-2 .5522847 0 1 .4477153 1 1s-.4477153 1-1 1c0 .5522847-.4477153 1-1 1z" fill="#a56a43"/><path id="Shape" d="m34.83 38.45c-.3051825-.456275-.9211173-.5812473-1.38-.28-1.3094432.8702662-2.8941209 1.2263736-4.45 1v-.17c0-.5522847-.4477153-1-1-1s-1 .4477153-1 1v.19c-1.5556561.2206833-3.1383239-.1349724-4.45-1-.4550261-.2440793-1.0210631-.101585-1.306288.3288453s-.1958368 1.0072424.206288 1.3311547c1.3802201.9284669 3.006555 1.4229841 4.67 1.42.6350864-.0159639 1.2660898-.1065867 1.88-.27.6163137.1431875 1.2472822.213668 1.88.21 1.663445.0029841 3.2897799-.4915331 4.67-1.42.4323484-.3027739.5549345-.8894356.28-1.34z" fill="#802d40"/><path id="Shape" d="m15 26c-.1966006.0022477-.3889572-.057208-.55-.17-.456275-.3051825-.5812473-.9211173-.28-1.38 1.2771493-2.0918409 3.7935555-3.0738531 6.15-2.4.2615382.0737865.4817847.2508344.6100573.4904024s.1535238.5210229.0699427.7795976c-.1757093.5203974-.7382565.801671-1.26.63-1.5005364-.4023627-3.0841498.2540573-3.86 1.6-.1935232.2946107-.5278579.4655774-.88.45z" fill="#cb8252"/><path id="Shape" d="m41 26c-.3345191-.0017306-.6460165-.1706148-.83-.45-.7884872-1.3296677-2.3708971-1.9650913-3.86-1.55-.5246705.1739697-1.0910303-.1103295-1.265-.635s.1103295-1.0910303.635-1.265c2.3564445-.6738531 4.8728507.3081591 6.15 2.4.3012473.4588827.176275 1.0748175-.28 1.38-.1667699.0952463-.3587128.1371247-.55.12z" fill="#cb8252"/><path id="Shape" d="m48 21c.0738485 2.3497268-.1343038 4.6998328-.62 7-.37 1.55-.83 2.42-1.15 3.76.1825851-1.1087932.2994557-2.2274115.35-3.35.42-11.04-7.14-13.41-11.58-13.41-2.887058-.0385895-5.5675092 1.4930969-7 4-1.4324908-2.5069031-4.112942-4.0385895-7-4-4.86 0-13.49 2.83-11.23 16.75-.32-1.34-.78-2.21-1.15-3.76-.47831285-2.2978841-.68639137-4.6438016-.62-6.99 0-8.07 5.79-13.53 13.87-15.35l13.13.21c7.61 1.99 13 7.36 13 15.14z" fill="#a56a43"/><path id="Shape" d="m25 9.09c-.22-2.3-1.11-3.09-2-3.09-1.1045695 0-2-.8954305-2-2s.8954305-2 2-2c2 0 5 1 5 5 0-3 3-3 4-3 2 0 3 .9 3 2 .1022559.81241515-.1872066 1.62513664-.78 2.19z" fill="#a56a43"/><path id="Shape" d="m25 10.09c-.5224937.0016745-.958203-.39917807-1-.92-.13-1.3-.52-2.17-1-2.17-1.6568542 0-3-1.34314575-3-3s1.3431458-3 3-3c2.2094753-.10191141 4.2845718 1.06169407 5.35 3 1.0712899-.73064562 2.3559045-1.08259483 3.65-1 2.76 0 4 1.51 4 3 .1195023 1.12449266-.3038758 2.23864542-1.14 3-.4252593.35346223-1.0565378.29525924-1.41-.13000001s-.2952592-1.05653775.13-1.40999999c.42-.36.42-.81.42-1.46s-.79-1-2-1c-2.13 0-3 .58-3 2 0 .55228475-.4477153 1-1 1s-1-.44771525-1-1c.1032676-1.08925877-.2848594-2.16778871-1.0585354-2.94146464-.7736759-.77367593-1.8522058-1.16180301-2.9414646-1.05853536-.5522847.00000001-1 .44771526-1 1s.4477153.99999999 1 1c.62 0 2.66.29 3 4 .0220876.26540805-.0626086.52866258-.2353118.73140109-.1727031.20273852-.4191442.32821041-.6846882.34859891z" fill="#805333"/><circle id="Oval" cx="19.5" cy="30.5" fill="#ecf0f1" r="3.5"/><circle id="Oval" cx="36.5" cy="30.5" fill="#ecf0f1" r="3.5"/><circle id="Oval" cx="20" cy="31" fill="#35495e" r="2"/><circle id="Oval" cx="36" cy="31" fill="#35495e" r="2"/><path id="Shape" d="m20 35c-.265803.0015368-.5212812-.1028135-.71-.29-.3297332-.335591-.695248-.6340389-1.09-.89-.3004696-.1957774-.6185077-.3631659-.95-.5h-.08c-.3695511-.1708239-.7649504-.2789673-1.17-.32-.5522847 0-1-.4477153-1-1s.4477153-1 1-1c.6316904.0271644 1.2540438.1624586 1.84.4h.07c.4864723.1883354.9522614.4262564 1.39.71.5081362.3340438.9806157.7193995 1.41 1.15.1893127.1877666.2957983.4433625.2957983.71s-.1064856.5222334-.2957983.71c-.1837018.1982262-.4398153.3136577-.71.32z" fill="#cf976a"/><path id="Shape" d="m36 35c-.265803.0015368-.5212812-.1028135-.71-.29-.1893127-.1877666-.2957983-.4433625-.2957983-.71s.1064856-.5222334.2957983-.71c.4293843-.4306005.9018638-.8159562 1.41-1.15.4377386-.2837436.9035277-.5216646 1.39-.71h.08c.5807413-.2474796 1.1998147-.392945 1.83-.43.5522847 0 1 .4477153 1 1s-.4477153 1-1 1c-.4032302.0320616-.7984741.130028-1.17.29h-.08c-.3487073.1339608-.683607.3014106-1 .5-.394752.2559611-.7602668.554409-1.09.89-.1715276.1864121-.4074099.3007793-.66.32z" fill="#cf976a"/><g fill="#ecf0f1"><circle id="Oval" cx="19" cy="30" r="1"/><circle id="Oval" cx="37" cy="30" r="1"/></g></g></g></svg>