<svg height="512" viewBox="0 0 58 58" width="512" xmlns="http://www.w3.org/2000/svg"><g id="Page-1" fill="none" fill-rule="evenodd"><g id="027---Happy-Monkey" fill-rule="nonzero" transform="translate(-1)"><path id="Shape" d="m10 52.25c-4.39-1.25-9-4.52-9-11.25 0-3.19 1.08-5.73 3-7.13 1.62922203-1.1549951 3.7195098-1.4424097 5.6-.77 1.049341.3479394 1.6179394 1.480659 1.27 2.53s-1.48065898 1.6179394-2.53 1.27c-.66033683-.2653101-1.40917238-.1866824-2 .21-.84.63-1.34 2.05-1.34 3.89 0 4.59 3.22 6.54 6 7.38z" fill="#805333"/><path id="Shape" d="m42 48v-2c-.0996031-3.8460087-1.808286-7.4737855-4.71-10h-14.58c-2.901714 2.5262145-4.6103969 6.1539913-4.71 10v2z" fill="#a56a43"/><path id="Shape" d="m37 46.61c1.71-.28 3.54-.43 5-.52 1.75-.09 3-.09 3-.09v12s-8.11-.1-12.93-2h-4.14c-4.82 1.9-12.93 2-12.93 2v-12s1.25 0 3 .09c1.47.09 3.3.24 5 .52z" fill="#805333"/><ellipse id="Oval" cx="15" cy="52" fill="#fdd7ad" rx="5" ry="6"/><ellipse id="Oval" cx="45" cy="52" fill="#fdd7ad" rx="5" ry="6"/><path id="Shape" d="m34.81 36.57c1.1507132 3.2265648 1.8833428 6.587251 2.18 10v.39c0 5-2.11 9-7 9s-7-4-7-9c0-.12 0-.25 0-.39.12-2.7 1.38-7.2 2.25-10z" fill="#f9c795"/><path id="Shape" d="m30 50c-.5522847 0-1-.4477153-1-1v-1c0-.5522847.4477153-1 1-1s1 .4477153 1 1v1c0 .5522847-.4477153 1-1 1z" fill="#cf976a"/><path id="Shape" d="m50 22c0 6.26-3.91 11-9.9 13.19-3.2400922 1.1701281-6.6552038 1.7821431-10.1 1.81-3.4447962-.0278569-6.8599078-.6398719-10.1-1.81-5.99-2.19-9.9-6.93-9.9-13.19 0-8.35 7.08-16.87 16.42-18.65.0602802-1.13275607-.0819466-2.26718426-.42-3.35 3 0 4 3 4 3 1.6811593-1.39057788 3.8207259-2.10376676 6-2-.4067026.86250542-.7023943 1.77310149-.88 2.71 8.57 2.37 14.88 10.41 14.88 18.29z" fill="#fdd7ad"/><path id="Shape" d="m10.25 24.63c-3.23936367 1.1040036-6.80205778-.2960863-8.42307615-3.3101534-1.62101837-3.0140671-.82504516-6.7583251 1.88187443-8.8523373 2.70691959-2.0940123 6.53106122-1.9237715 9.04120172.4024907z" fill="#fb7b76"/><path id="Shape" d="m49.75 24.63c3.2393637 1.1040036 6.8020578-.2960863 8.4230761-3.3101534 1.6210184-3.0140671.8250452-6.7583251-1.8818744-8.8523373-2.7069196-2.0940123-6.5310612-1.9237715-9.0412017.4024907z" fill="#fb7b76"/><path id="Shape" d="m11.17 17c-.2336522.0004565-.4600879-.0809188-.64-.23-.72475548-.5497102-1.62188701-.8227502-2.53-.77-.55228475 0-1-.4477153-1-1s.44771525-1 1-1c1.38097492-.0456719 2.7326232.4048776 3.81 1.27.2045071.1695482.3331478.4135008.3575369.6780285s-.057478.5278889-.2275369.7319715c-.1978303.2136934-.4789834.3305362-.77.32z" fill="#ff5364"/><path id="Shape" d="m48.83 17c-.2974322.000483-.5796435-.1314599-.77-.36-.1700589-.2040826-.251926-.4674438-.2275369-.7319715s.1530298-.5084803.3575369-.6780285c1.0829143-.8507974 2.434023-1.2869821 3.81-1.23.5522847 0 1 .4477153 1 1s-.4477153 1-1 1c-.9130799-.0413733-1.8107299.2460166-2.53.81-.1852695.1347774-.4112003.2018507-.64.19z" fill="#ff5364"/><path id="Shape" d="m47.34 30.06c.4450472-3.886488-1.2074492-7.716929-4.34-10.06v-4c0-2-2-7-7-7s-6 4-6 4-1-4-6-4-7 5-7 7v4c-3.1325508 2.343071-4.7850472 6.173512-4.34 10.06-1.7586219-2.3159403-2.69466772-5.1522296-2.66-8.06 0-7.71 6-15.58 14.33-18.13.6871132-.20969295 1.3847349-.38326389 2.09-.52.0602802-1.13275607-.0819466-2.26718426-.42-3.35 3 0 4 3 4 3 1.6811593-1.39057788 3.8207259-2.10376676 6-2-.4067026.86250542-.7023943 1.77310149-.88 2.71.66.19 1.3.4 1.93.65 7.58 2.96 12.95 10.37 12.95 17.64.0346677 2.9077704-.9013781 5.7440597-2.66 8.06z" fill="#a56a43"/><path id="Shape" d="m37.06 4.36c-.0355864.25173296-.0522997.50577453-.05.76 0 .55228475-.4477153 1-1 1s-1-.44771525-1-1c.002931-.47242107.043055-.943878.12-1.41.66.19 1.3.4 1.93.65z" fill="#805333"/><path id="Shape" d="m26.42 3.35v.09c-.0500285.69278107-.2262574 1.37058459-.52 2-.1682534.34339102-.5176049.56076527-.9.56-.1523698.00062363-.3028673-.03358034-.44-.1-.2390365-.11632967-.4219154-.32305065-.5082298-.57448827-.0863144-.25143763-.0689596-.52689553.0482298-.76551173.1078978-.21838418.1852877-.45055397.23-.69.6871132-.20969295 1.3847349-.38326389 2.09-.52z" fill="#805333"/><path id="Shape" d="m33 26c0 1.1-1.34 1-3 1s-3 .1-3-1c.1874269-1.5727003 1.4272997-2.8125731 3-3 1.5727003.1874269 2.8125731 1.4272997 3 3z" fill="#fb7b76"/><circle id="Oval" cx="24" cy="20" fill="#ecf0f1" r="4"/><circle id="Oval" cx="36" cy="20" fill="#ecf0f1" r="4"/><path id="Shape" d="m36.71 30.29c-.1877666-.1893127-.4433625-.2957983-.71-.2957983s-.5222334.1064856-.71.2957983c-1.0412263 1.2564859-2.7726394 1.700438-4.29 1.1v-.39c0-.5522847-.4477153-1-1-1s-1 .4477153-1 1v.4c-1.5196812.5948669-3.2495455.1472797-4.29-1.11-.3921222-.3921221-1.0278778-.3921221-1.42 0-.3921221.3921222-.3921221 1.0278778 0 1.42 1.1275234 1.2147982 2.7027573 1.915705 4.36 1.94.8106548-.0012564 1.6117505-.1751112 2.35-.51.7382495.3348888 1.5393452.5087436 2.35.51 1.6572427-.024295 3.2324766-.7252018 4.36-1.94.1893127-.1877666.2957983-.4433625.2957983-.71s-.1064856-.5222334-.2957983-.71z" fill="#802d40"/><circle id="Oval" cx="25" cy="20" fill="#3f5c6c" r="2"/><circle id="Oval" cx="35" cy="20" fill="#3f5c6c" r="2"/><g fill="#ecf0f1"><circle id="Oval" cx="24" cy="19" r="1"/><circle id="Oval" cx="36" cy="19" r="1"/></g></g></g></svg>